<?xml version="1.0" standalone="no"?><!DOCTYPE svg PUBLIC "-//W3C//DTD SVG 1.1//EN" "http://www.w3.org/Graphics/SVG/1.1/DTD/svg11.dtd"><svg t="1539093399212" class="icon" style="" viewBox="0 0 1024 1024" version="1.1" xmlns="http://www.w3.org/2000/svg" p-id="2714" xmlns:xlink="http://www.w3.org/1999/xlink" width="200" height="200"><defs><style type="text/css"></style></defs><path d="M735.48 881.936H291.888c-54.448 0-98.584-44.144-98.584-98.576V241.168c0-54.448 44.136-98.584 98.584-98.584H608.88c8.536-1.608 17.6 0.4 24.192 7l192.264 192.288c4.28 4.264 6.768 9.608 7.576 15.16 0.752 2.32 1.112 4.808 1.112 7.368v418.96c0.024 54.424-44.072 98.552-98.496 98.576h-0.048z m-98.592-651.6v109.416h109.424L636.888 230.336zM784.784 389.04H612.264a24.664 24.664 0 0 1-24.656-24.648V191.872H291.888a49.288 49.288 0 0 0-49.288 49.288V783.36c0 27.2 22.056 49.264 49.272 49.264h443.584a49.296 49.296 0 0 0 49.304-49.264V389.04h0.024z" p-id="2715" fill="#404040"></path></svg>