<?xml version="1.0" standalone="no"?><!DOCTYPE svg PUBLIC "-//W3C//DTD SVG 1.1//EN" "http://www.w3.org/Graphics/SVG/1.1/DTD/svg11.dtd"><svg t="1539066031288" class="icon" style="" viewBox="0 0 1024 1024" version="1.1" xmlns="http://www.w3.org/2000/svg" p-id="4578" xmlns:xlink="http://www.w3.org/1999/xlink" width="200" height="200"><defs><style type="text/css"></style></defs><path d="M979.222 415.474C894.954 332.02 776.31 192.004 509.958 192.004c-266.316 0-384.962 140.016-469.23 223.47-19.86 19.682-30.788 45.784-30.788 73.534 0 27.728 10.93 53.85 30.788 73.51 84.27 83.476 202.896 223.47 469.23 223.47 266.368 0 384.996-139.994 469.264-223.47 19.86-19.66 30.79-45.784 30.79-73.51C1010.01 461.256 999.082 435.156 979.222 415.474zM940.882 524.282C862.556 601.838 756.802 732 509.958 732c-246.81 0-352.564-130.164-430.89-207.718-9.548-9.468-14.8-22.01-14.8-35.276 0-13.288 5.252-25.806 14.8-35.252 78.344-77.578 184.098-207.764 430.89-207.764 246.826 0 352.58 130.186 430.924 207.764 9.55 9.446 14.802 21.966 14.802 35.252C955.684 502.272 950.432 514.812 940.882 524.282zM509.974 335.996c-84.868 0-153.928 68.652-153.928 152.988 0 84.358 69.06 153.01 153.928 153.01 84.872 0 153.93-68.652 153.93-153.01C663.904 404.648 594.846 335.996 509.974 335.996zM509.974 588.008c-54.912 0-99.6-44.428-99.6-99.024 0-54.574 44.69-98.978 99.6-98.978 54.912 0 99.6 44.404 99.6 98.978C609.576 543.58 564.888 588.008 509.974 588.008z" p-id="4579"></path></svg>