<?xml version="1.0" standalone="no"?><!DOCTYPE svg PUBLIC "-//W3C//DTD SVG 1.1//EN" "http://www.w3.org/Graphics/SVG/1.1/DTD/svg11.dtd"><svg t="1539065710395" class="icon" style="" viewBox="0 0 1024 1024" version="1.1" xmlns="http://www.w3.org/2000/svg" p-id="2527" xmlns:xlink="http://www.w3.org/1999/xlink" width="200" height="200"><defs><style type="text/css"></style></defs><path d="M511.771963 1023.291077c-63.724308 0-125.558154-12.445538-183.768615-37.100308a469.464615 469.464615 0 0 1-150.134154-101.139692 471.118769 471.118769 0 0 1 59.392-717.351385 37.021538 37.021538 0 0 1 43.008 59.864616 403.692308 403.692308 0 0 0-121.304616 139.027692A391.798154 391.798154 0 0 0 113.435963 551.227077c0 106.338462 41.432615 206.375385 116.657231 281.6a395.736615 395.736615 0 0 0 281.678769 116.736c106.338462 0 206.454154-41.432615 281.757539-116.736a395.421538 395.421538 0 0 0 116.65723-281.6 391.483077 391.483077 0 0 0-45.528615-184.635077 403.298462 403.298462 0 0 0-121.304615-138.870154 36.864 36.864 0 0 1 43.008-59.943384 471.04 471.04 0 0 1 59.392 717.430153 471.04 471.04 0 0 1-333.981539 138.161231z m11.106462-512.236308a36.864 36.864 0 0 1-36.94277-36.864V37.021538a37.021538 37.021538 0 0 1 73.964308 0v437.169231c0 20.48-16.541538 36.864-37.021538 36.864z" p-id="2528"></path></svg>