<?xml version="1.0" standalone="no"?><!DOCTYPE svg PUBLIC "-//W3C//DTD SVG 1.1//EN" "http://www.w3.org/Graphics/SVG/1.1/DTD/svg11.dtd"><svg t="1539065885341" class="icon" style="" viewBox="0 0 1029 1024" version="1.1" xmlns="http://www.w3.org/2000/svg" p-id="3791" xmlns:xlink="http://www.w3.org/1999/xlink" width="200.9765625" height="200"><defs><style type="text/css"></style></defs><path d="M1007.2 262.4c-12.8-6.4-32 0-38.4 19.2l-25.6 70.4C904.8 256 847.2 179.2 757.6 128c-108.8-64-230.4-89.6-352-57.6C232.8 108.8 104.8 236.8 60 409.6 53.6 428.8 66.4 441.6 79.2 448 98.4 448 111.2 441.6 117.6 422.4c38.4-153.6 153.6-268.8 307.2-300.8 108.8-25.6 217.6-6.4 307.2 51.2 76.8 44.8 134.4 115.2 166.4 198.4l-76.8-32c-12.8-6.4-32 0-38.4 19.2-6.4 12.8 0 32 12.8 38.4l128 51.2c6.4 6.4 12.8 6.4 19.2 6.4 0 0 6.4 0 6.4 0 0 0 0 0 0 0 0 0 0 0 6.4 0 6.4 0 12.8-6.4 12.8-12.8L1026.4 294.4C1032.8 281.6 1020 268.8 1007.2 262.4z" p-id="3792"></path><path d="M949.6 576c-12.8-6.4-32 6.4-32 19.2-38.4 153.6-153.6 268.8-307.2 300.8-108.8 25.6-217.6 6.4-307.2-51.2-76.8-44.8-134.4-115.2-166.4-198.4l76.8 32c12.8 6.4 32 0 38.4-19.2 6.4-12.8 0-32-12.8-38.4L104.8 576C98.4 576 92 569.6 85.6 569.6c0 0-6.4 0-6.4 0 0 0 0 0 0 0 0 0 0 0-6.4 0C66.4 576 60 582.4 60 588.8L2.4 729.6c-6.4 12.8 0 32 19.2 38.4 12.8 6.4 32 0 38.4-19.2l25.6-70.4C124 768 181.6 844.8 271.2 896c108.8 64 230.4 89.6 352 57.6 172.8-38.4 307.2-172.8 345.6-345.6C975.2 595.2 962.4 582.4 949.6 576z" p-id="3793"></path></svg>