<?xml version="1.0" standalone="no"?><!DOCTYPE svg PUBLIC "-//W3C//DTD SVG 1.1//EN" "http://www.w3.org/Graphics/SVG/1.1/DTD/svg11.dtd"><svg t="1533966325280" class="icon" style="" viewBox="0 0 1024 1024" version="1.1" xmlns="http://www.w3.org/2000/svg" p-id="2194" xmlns:xlink="http://www.w3.org/1999/xlink" width="200" height="200"><defs><style type="text/css"></style></defs><path d="M471 419.59a36.83 36.83 0 0 1-26.47-62.43l82.79-85.74-85.74-82.86a36.83 36.83 0 0 1 51.21-52.94l104.12 100.55a48.1 48.1 0 0 1 0.94 68.26L497.51 408.36A36.59 36.59 0 0 1 471 419.59zM545.63 289c0.14 0.07 0.22 0.22 0.29 0.29z m-0.5-36l-0.36 0.36z" fill="#2fbdfc" p-id="2195"></path><path d="M512 898.69c-185.79 0-336.91-151.12-336.91-336.91S326.25 224.88 512 224.88a36.83 36.83 0 0 1 0 73.65c-145.15 0-263.25 118.1-263.25 263.25S366.89 825 512 825s263.18-118.1 263.18-263.25a36.83 36.83 0 0 1 73.65 0c0.04 185.82-151.08 336.94-336.83 336.94z" fill="#2fbdfc" p-id="2196"></path></svg>