<svg xmlns="http://www.w3.org/2000/svg" xmlns:xlink="http://www.w3.org/1999/xlink" viewBox="0 0 16 16"><defs><path id="b" d="M8.643 9.643h-1.6a.8.8 0 1 0 0 1.6h2.4a.797.797 0 0 0 .8-.8v-6.4a.8.8 0 1 0-1.6 0v5.6z"/><filter id="a" width="125%" height="112.5%" x="-6.2%" y="-3.1%" filterUnits="objectBoundingBox"><feOffset dx=".5" dy=".5" in="SourceAlpha" result="shadowOffsetOuter1"/><feColorMatrix in="shadowOffsetOuter1" values="0 0 0 0 0.0117647059 0 0 0 0 0.662745098 0 0 0 0 0.956862745 0 0 0 1 0"/></filter></defs><g fill="none" fill-rule="evenodd"><path fill="#FFE411" d="M8 14.375l-2.472 1.233-1.275-2.45-2.725-.456.409-2.732L0 8l1.937-1.97-.409-2.732 2.725-.456L5.528.392 8 1.625 10.472.392l1.275 2.45 2.725.456-.409 2.732L16 8l-1.937 1.97.409 2.732-2.725.456-1.275 2.45z"/><g transform="rotate(45 8.243 7.243)"><use fill="black" filter="url(#a)" xlink:href="#b"/><use fill="#FFFFFF" xlink:href="#b"/></g></g></svg>